# xmcd
#
# Track frame offsets:
#	150
#	24716
#	43244
#	79332
#	97607
#	157262
#	186526
#	225711
#	247698
#	278561
#	302306
#
# Disc length: 4269 seconds
#
# Revision: 1
# Processed by: cddbd v1.5.2PL0 Copyright (c) Steve Scherf et al.
# Submitted via: audiograbber 1.83.01
#
DISCID=8410ab0b
DTITLE=Grateful Dead - 72-10-02 Springfield Civic Centre Arena, Springfield MA
DYEAR=1900
DGENRE=
TTITLE0=Cold Rain and Snow
TTITLE1=Mexicali Blues
TTITLE2=Tennessee Jed
TTITLE3=BIODTL
TTITLE4=Bird Song
TTITLE5=Black Throated Wind
TTITLE6=Big Railroad Blues
TTITLE7=Brown Eyed Women
TTITLE8=Cumberland Blues
TTITLE9=Jack Straw
TTITLE10=Don't Ease Me In
EXTD=
EXTT0=
EXTT1=
EXTT2=
EXTT3=
EXTT4=
EXTT5=
EXTT6=
EXTT7=
EXTT8=
EXTT9=
EXTT10=
PLAYORDER=
